<svg width="28" height="24" viewBox="0 0 28 24" fill="none" xmlns="http://www.w3.org/2000/svg">
<g clip-path="url(#clip0_2_39)">
<path d="M9.31764 0.0788907C10.4731 0.126735 11.6273 0.105205 12.7816 0.0621451C13.0399 0.0525762 13.2983 0.0322423 13.5555 0.00712392C13.6476 -0.00244499 13.6978 0.00592781 13.6811 0.111186C13.6787 0.124343 13.6811 0.1375 13.6811 0.150657C13.6799 0.316917 13.7325 0.511883 13.6619 0.641064C13.5878 0.77742 13.3653 0.731968 13.2086 0.766655C11.8163 1.06927 10.7243 1.83957 9.85828 2.94119C7.97919 5.32982 6.11206 7.72803 4.23536 10.1191C4.14445 10.2339 4.20067 10.2889 4.25928 10.3702C6.23765 13.1392 8.21482 15.9082 10.192 18.6772C10.8283 19.5683 11.4718 20.4535 12.0962 21.3518C12.7768 22.3326 13.6954 22.9605 14.8449 23.256C14.9669 23.2871 15.0087 23.3325 14.9992 23.4545C14.986 23.6256 15.0494 23.8468 14.9645 23.9533C14.8832 24.055 14.6559 23.9557 14.4932 23.9485C13.0866 23.8839 11.68 23.8779 10.2721 23.8887C9.39658 23.8947 8.52103 23.915 7.64787 23.982C7.48161 23.9952 7.40147 23.97 7.42659 23.7799C7.44692 23.6303 7.38233 23.4366 7.45529 23.3349C7.53184 23.2285 7.73877 23.2835 7.88709 23.2607C8.15502 23.2189 8.42534 23.177 8.67054 23.0526C8.97316 22.8995 9.06287 22.6842 8.95881 22.3613C8.899 22.1771 8.80451 22.0108 8.69805 21.8493C6.97565 19.2526 5.25205 16.6558 3.52846 14.0603C3.25694 13.6512 2.9603 13.2612 2.63496 12.8905C2.10269 12.284 1.43047 11.9742 0.636255 11.9072C0.471192 11.8941 0.306128 11.8738 0.139869 11.869C0.0477679 11.8666 0.016669 11.8439 0.0106884 11.7458C-0.0216066 11.186 -0.0239988 11.1896 0.519036 11.1453C1.8838 11.0365 3.03207 10.4659 3.89088 9.40977C5.2066 7.79382 6.49601 6.15634 7.75193 4.49255C8.16339 3.94712 8.52701 3.3694 8.79015 2.73426C8.88943 2.49504 8.96718 2.24864 8.97914 1.98669C9.00187 1.49509 8.79135 1.14582 8.34161 0.942484C7.96005 0.770244 7.55457 0.708046 7.14071 0.700869C6.95532 0.697281 6.88116 0.653025 6.89073 0.443705C6.91106 -0.0215828 6.89671 -0.0108178 7.36678 0.0119084C8.01746 0.0465956 8.66815 0.0585568 9.31764 0.0788907Z" fill="black"/>
<path d="M21.3188 0.0621244C22.7386 0.0621244 24.1595 0.0669089 25.5793 0.0597322C26.1032 0.05734 26.6271 0.0393983 27.1498 0.00231879C27.3424 -0.0120346 27.3687 0.0382022 27.3496 0.210442C27.2348 1.2391 27.1833 2.27254 27.1486 3.30718C27.108 4.51525 27.1355 5.72093 27.2264 6.92542C27.2395 7.09288 27.2013 7.15388 27.0326 7.12756C26.9608 7.1168 26.8867 7.12517 26.8137 7.12517C26.4298 7.12517 26.4393 7.12397 26.3963 6.73045C26.2755 5.61568 26.1116 4.50927 25.8102 3.42559C25.3963 1.93524 24.4083 1.12308 22.8964 0.905384C22.3235 0.822852 21.7494 0.779792 21.1717 0.786969C19.5246 0.808499 17.8788 0.752281 16.2329 0.746301C15.9482 0.745105 15.6612 0.735536 15.3789 0.780988C15.2808 0.796538 15.2413 0.782184 15.2377 0.664965C15.2186 0.101596 15.2138 0.101596 15.7796 0.101596C17.6264 0.101596 19.472 0.101596 21.3188 0.101596C21.3188 0.0884389 21.3188 0.0752817 21.3188 0.0621244Z" fill="black"/>
<path d="M17.375 11.9083C17.9791 11.9083 18.5843 11.9287 19.1871 11.9024C19.8163 11.8748 20.4167 11.7193 20.845 11.211C21.2851 10.6883 21.5351 10.0699 21.6511 9.39889C21.7516 8.8116 21.8437 8.22191 21.937 7.63223C21.9561 7.50903 21.9848 7.42769 22.1451 7.44683C22.3413 7.46956 22.6056 7.38583 22.7205 7.4863C22.8389 7.58917 22.736 7.85829 22.7205 8.05206C22.5913 9.67639 22.6547 11.3019 22.6618 12.9274C22.6678 14.2467 22.748 15.5649 22.852 16.8794C22.8652 17.0397 22.8317 17.109 22.6571 17.0875C22.5195 17.0708 22.3784 17.0755 22.2396 17.0863C22.1009 17.0983 22.0662 17.0433 22.0482 16.9105C21.943 16.1222 21.8485 15.3328 21.6559 14.5589C21.5985 14.3269 21.5004 14.1104 21.3928 13.8975C20.9574 13.0351 20.2146 12.6703 19.2924 12.6296C18.0461 12.5734 16.7973 12.614 15.5498 12.6116C15.3751 12.6116 15.3261 12.5722 15.3309 12.394C15.344 11.9155 15.3345 11.9155 15.8213 11.9155C16.3392 11.9155 16.8571 11.9155 17.375 11.9155C17.375 11.9119 17.375 11.9095 17.375 11.9083Z" fill="black"/>
</g>
<defs>
<clipPath id="clip0_2_39">
<rect width="27.3563" height="24" fill="white"/>
</clipPath>
</defs>
</svg>
