<svg width="186" height="163" viewBox="0 0 186 163" fill="none" xmlns="http://www.w3.org/2000/svg">
<g opacity="0.6" clip-path="url(#clip0_2_31)">
<path d="M63.3246 0.535046C71.172 0.85999 79.0112 0.713766 86.8505 0.421316C88.6052 0.356327 90.3599 0.218226 92.1065 0.0476305C92.732 -0.0173583 93.0732 0.0395069 92.9594 0.754384C92.9432 0.843743 92.9594 0.933103 92.9594 1.02246C92.9513 2.15164 93.3088 3.47579 92.8295 4.35314C92.3258 5.27923 90.8148 4.97053 89.7506 5.20611C80.2948 7.26139 72.8779 12.493 66.9964 19.9748C54.2343 36.1976 41.5533 52.4855 28.8074 68.7245C28.19 69.5044 28.5718 69.8781 28.9699 70.4305C42.4063 89.2366 55.8346 108.043 69.2629 126.849C73.5847 132.901 77.9552 138.912 82.1957 145.013C86.818 151.675 93.0569 155.939 100.864 157.946C101.692 158.157 101.977 158.466 101.912 159.295C101.822 160.456 102.253 161.959 101.676 162.682C101.124 163.373 99.5802 162.698 98.4754 162.65C88.922 162.211 79.3687 162.17 69.8072 162.243C63.8607 162.284 57.9142 162.422 51.984 162.877C50.8548 162.966 50.3106 162.796 50.4812 161.504C50.6193 160.489 50.1806 159.173 50.6761 158.482C51.196 157.759 52.6014 158.133 53.6087 157.979C55.4284 157.694 57.2644 157.41 58.9297 156.565C60.985 155.525 61.5942 154.063 60.8875 151.87C60.4813 150.619 59.8395 149.489 59.1165 148.393C47.4186 130.756 35.7125 113.12 24.0064 95.4918C22.1623 92.7135 20.1477 90.0652 17.938 87.5469C14.323 83.4282 9.75758 81.3242 4.36351 80.8693C3.24245 80.78 2.1214 80.6419 0.992217 80.6094C0.3667 80.5931 0.155487 80.4388 0.114869 79.7726C-0.104468 75.9708 -0.120715 75.9951 3.5674 75.6946C12.8364 74.9553 20.6351 71.0804 26.4678 63.9072C35.4038 52.9323 44.161 41.811 52.6908 30.5111C55.4853 26.8068 57.9549 22.8831 59.7421 18.5694C60.4163 16.9447 60.9444 15.2713 61.0256 13.4922C61.1799 10.1534 59.7502 7.7813 56.6957 6.40028C54.1043 5.23049 51.3504 4.80806 48.5396 4.75932C47.2805 4.73495 46.7768 4.43437 46.8418 3.01274C46.9799 -0.147336 46.8824 -0.0742235 50.075 0.0801249C54.4942 0.315709 58.9135 0.396945 63.3246 0.535046Z" fill="#F4F5F5"/>
<path d="M144.835 0.422417C154.478 0.422417 164.129 0.454911 173.772 0.406169C177.33 0.389922 180.888 0.268068 184.438 0.0162367C185.746 -0.0812465 185.925 0.259945 185.795 1.42974C185.015 8.41604 184.665 15.4348 184.43 22.4617C184.154 30.6666 184.34 38.8552 184.958 47.0356C185.047 48.1729 184.787 48.5872 183.642 48.4085C183.154 48.3354 182.651 48.3923 182.155 48.3923C179.548 48.3923 179.613 48.3841 179.32 45.7115C178.5 38.1403 177.387 30.626 175.34 23.266C172.529 13.144 165.819 7.62805 155.55 6.14955C151.659 5.58903 147.76 5.29658 143.836 5.34532C132.65 5.49154 121.472 5.10973 110.294 5.06911C108.36 5.06099 106.411 4.996 104.494 5.3047C103.827 5.41031 103.559 5.31282 103.535 4.51671C103.405 0.690495 103.373 0.690495 107.215 0.690495C119.758 0.690495 132.293 0.690495 144.835 0.690495C144.835 0.601136 144.835 0.511776 144.835 0.422417Z" fill="#F4F5F5"/>
<path d="M118.046 80.8786C122.148 80.8786 126.258 81.0168 130.353 80.838C134.626 80.6512 138.704 79.5951 141.612 76.1426C144.602 72.5926 146.299 68.3927 147.087 63.8353C147.77 59.8466 148.395 55.8417 149.029 51.8368C149.159 51 149.354 50.4476 150.442 50.5776C151.775 50.732 153.57 50.1633 154.35 50.8457C155.154 51.5443 154.455 53.3721 154.35 54.6882C153.472 65.72 153.903 76.76 153.952 87.8C153.992 96.7603 154.537 105.713 155.243 114.64C155.333 115.729 155.105 116.2 153.919 116.054C152.985 115.94 152.026 115.973 151.084 116.046C150.142 116.127 149.906 115.753 149.784 114.852C149.07 109.498 148.428 104.137 147.12 98.8806C146.73 97.3046 146.064 95.8342 145.333 94.3882C142.376 88.5311 137.331 86.0534 131.068 85.7772C122.603 85.3954 114.122 85.6716 105.649 85.6553C104.463 85.6553 104.13 85.3873 104.162 84.1768C104.252 80.9274 104.187 80.9274 107.493 80.9274C111.01 80.9274 114.528 80.9274 118.046 80.9274C118.046 80.903 118.046 80.8868 118.046 80.8786Z" fill="#F4F5F5"/>
</g>
<defs>
<clipPath id="clip0_2_31">
<rect width="185.795" height="163" fill="white" transform="translate(0.0429688)"/>
</clipPath>
</defs>
</svg>
